<!-- Generated by IcoMoon.io -->
<svg version="1.1" xmlns="http://www.w3.org/2000/svg" width="30" height="32" viewBox="0 0 30 32">
<title>arrow-2-down</title>
<path d="M0 17.321c0-0.44 0.147-0.734 0.44-1.028 0.587-0.587 1.468-0.587 2.055 0l10.716 10.716v-25.541c0-0.881 0.587-1.468 1.468-1.468s1.468 0.587 1.468 1.468v25.541l10.716-10.716c0.587-0.587 1.468-0.587 2.055 0s0.587 1.468 0 2.055l-13.211 13.211c0 0 0 0 0 0v0c0 0 0 0 0 0v0c0 0 0 0 0 0s0 0 0 0 0 0 0 0v0c0 0 0 0 0 0v0c0 0 0 0 0 0-0.147 0.147-0.294 0.294-0.44 0.294s-0.294 0.147-0.44 0.147c0 0 0 0 0 0v0c0 0 0 0-0.147 0v0c0 0 0 0 0 0-0.147 0-0.294 0-0.44-0.147-0.147 0-0.294-0.147-0.44-0.294v0l-13.211-13.211c-0.44-0.294-0.587-0.734-0.587-1.028z"></path>
</svg>
