<!-- Generated by IcoMoon.io -->
<svg version="1.1" xmlns="http://www.w3.org/2000/svg" width="32" height="32" viewBox="0 0 32 32">
<title>arrow-2-bottom-left-45</title>
<path d="M0.6 3c0.4-0.4 0.8-0.6 1.4-0.6 1.2 0 2 0.8 2 2v20.8l24.6-24.6c0.8-0.8 2-0.8 2.8 0s0.8 2 0 2.8l-24.6 24.6h20.8c1.2 0 2 0.8 2 2s-0.8 2-2 2h-25.6c0 0 0 0 0 0v0c0 0 0 0 0 0v0c0 0 0 0 0 0s0 0 0 0 0 0 0 0v0c0 0 0 0 0 0v0c0 0 0 0 0 0-0.2 0-0.6 0-0.8-0.2-0.2 0-0.4-0.2-0.6-0.4 0 0 0 0 0 0v0c0 0 0 0 0 0v0c0 0 0 0 0 0-0.2-0.2-0.2-0.4-0.4-0.6s-0.2-0.6-0.2-0.8v0-25.6c0-0.6 0.2-1 0.6-1.4z"></path>
</svg>
