<!-- Generated by IcoMoon.io -->
<svg version="1.1" xmlns="http://www.w3.org/2000/svg" width="35" height="32" viewBox="0 0 35 32">
<title>arrow-2-left</title>
<path d="M15.92 0c0.478 0 0.796 0.159 1.114 0.478 0.637 0.637 0.637 1.592 0 2.229l-11.622 11.622h27.701c0.955 0 1.592 0.637 1.592 1.592s-0.637 1.592-1.592 1.592h-27.701l11.622 11.622c0.637 0.637 0.637 1.592 0 2.229s-1.592 0.637-2.229 0l-14.328-14.328c0 0 0 0 0 0v0c0 0 0 0 0 0v0c0 0 0 0 0 0s0 0 0 0 0 0 0 0v0c0 0 0 0 0 0v0c0 0 0 0 0 0-0.159-0.159-0.318-0.318-0.318-0.478-0.159-0.159-0.159-0.318-0.159-0.478 0 0 0 0 0 0v0c0 0 0 0 0-0.159v0c0 0 0 0 0 0 0-0.159 0-0.318 0.159-0.478 0-0.159 0.159-0.318 0.318-0.478v0l14.328-14.328c0.318-0.478 0.796-0.637 1.114-0.637z"></path>
</svg>
