<!-- Generated by IcoMoon.io -->
<svg version="1.1" xmlns="http://www.w3.org/2000/svg" width="35" height="32" viewBox="0 0 35 32">
<title>call</title>
<path d="M33.264 22.192c-2.405 0-4.732-0.359-6.903-1.004-0.684-0.215-1.447-0.054-1.975 0.43l-3.070 3.531c-5.534-2.42-10.716-6.991-13.474-12.243l3.813-2.976c0.528-0.502 0.684-1.201 0.469-1.828-0.724-1.99-1.095-4.123-1.095-6.328 0-0.968-0.88-1.775-1.936-1.775h-6.766c-1.056 0-2.327 0.43-2.327 1.775 0 16.653 15.116 30.492 33.264 30.492 1.388 0 1.936-1.129 1.936-2.115v-6.184c0-0.968-0.88-1.775-1.936-1.775z"></path>
</svg>
