<!-- Generated by IcoMoon.io -->
<svg version="1.1" xmlns="http://www.w3.org/2000/svg" width="29" height="32" viewBox="0 0 29 32">
<title>file</title>
<path d="M27.216 14.186l-13.361 13.361c-2.639 2.639-6.763 2.639-9.402 0s-2.639-6.763 0-9.402l14.515-14.515c1.649-1.649 4.289-1.649 5.773 0 1.649 1.649 1.649 4.289 0 5.773l-12.206 12.206c-0.66 0.66-1.649 0.66-2.309 0s-0.66-1.649 0-2.309l11.052-11.052-1.649-1.649-11.052 11.052c-1.649 1.649-1.649 4.289 0 5.773 1.649 1.649 4.289 1.649 5.773 0l12.206-12.206c2.639-2.639 2.639-6.763 0-9.402s-6.763-2.639-9.402 0l-14.515 14.68c-3.464 3.464-3.464 9.237 0 12.866 3.464 3.464 9.237 3.464 12.866 0l13.361-13.361-1.649-1.814z"></path>
</svg>
