<!-- Generated by IcoMoon.io -->
<svg version="1.1" xmlns="http://www.w3.org/2000/svg" width="191" height="32" viewBox="0 0 191 32">
<title>logo-color</title>
<path fill="#003d6e" d="M190.857 0h-156.763l-0.097 32h156.762l0.097-32z"></path>
<path fill="#fefefe" d="M55.673 15.563h10.454v0.828c0 3.881-1.129 6.946-3.392 9.195s-5.348 3.369-9.26 3.369c-1.194 0-2.328-0.12-3.404-0.368-1.082-0.247-2.074-0.61-2.984-1.081-2.080-1.11-3.687-2.645-4.816-4.606s-1.696-4.186-1.696-6.682c0-2.053 0.337-3.91 1.010-5.566 0.679-1.656 1.696-3.117 3.055-4.37 1.146-1.058 2.47-1.857 3.983-2.392 1.513-0.541 3.185-0.811 5.023-0.811 2.435 0 4.544 0.431 6.335 1.288 1.79 0.862 3.273 2.156 4.449 3.881l-2.529 1.973c-0.91-1.495-2.051-2.611-3.41-3.358s-2.943-1.121-4.745-1.121c-2.943 0-5.33 0.966-7.162 2.898-1.838 1.932-2.754 4.456-2.754 7.579 0 2.944 0.934 5.359 2.795 7.245s4.237 2.829 7.121 2.829c2.541 0 4.656-0.748 6.346-2.248s2.63-3.45 2.813-5.854h-7.233v-2.628zM74.405 28.3v-21.868h-7.168v-2.795h17.35v2.795h-7.133v21.868h-3.049zM87.95 28.3v-24.663h3.014v9.488h13.467v-9.488h3.067v24.663h-3.067v-12.38h-13.467v12.38h-3.014zM113.554 28.3v-24.663h5.951c1.702 0 2.943 0.092 3.735 0.276 0.791 0.19 1.488 0.506 2.086 0.955 0.75 0.569 1.335 1.34 1.749 2.3 0.419 0.96 0.626 2.024 0.626 3.192 0 2.018-0.578 3.553-1.743 4.606-1.158 1.052-2.861 1.576-5.099 1.576h-0.538l9.686 11.759h-3.829l-9.249-11.759h-0.431v11.759h-2.943zM116.497 6.115v8.252h2.299c2.357 0 3.935-0.293 4.733-0.885 0.798-0.587 1.193-1.616 1.193-3.088 0-1.581-0.407-2.691-1.229-3.329-0.822-0.633-2.387-0.949-4.697-0.949h-2.299zM132.529 28.3v-24.663h13.367v2.68h-10.353v7.073h10.353v2.732h-10.353v9.448h10.353v2.732h-13.367zM151.001 28.3v-24.663h13.367v2.68h-10.353v7.073h10.353v2.732h-10.353v9.448h10.353v2.732h-13.367zM178.698 14.603c1.649 0.684 2.896 1.593 3.735 2.726 0.833 1.139 1.253 2.478 1.253 4.026 0 2.271-0.738 4.1-2.222 5.486s-3.451 2.082-5.897 2.082c-1.998 0-3.67-0.494-5.023-1.489-1.347-0.995-2.257-2.409-2.73-4.238l2.73-1.317c0.371 1.495 0.981 2.628 1.826 3.393 0.85 0.77 1.914 1.156 3.197 1.156 1.512 0 2.736-0.425 3.67-1.271 0.933-0.851 1.4-1.95 1.4-3.312 0-1.098-0.325-2.059-0.975-2.869-0.656-0.817-1.637-1.501-2.954-2.064l-3.079-1.282c-1.685-0.684-2.943-1.564-3.765-2.645-0.827-1.075-1.241-2.369-1.241-3.87 0-1.754 0.667-3.203 2.009-4.347 1.336-1.144 3.043-1.719 5.123-1.719 1.525 0 2.842 0.316 3.953 0.943 1.118 0.627 1.986 1.558 2.607 2.783l-2.494 1.547c-0.562-0.955-1.2-1.662-1.903-2.128-0.704-0.466-1.502-0.701-2.387-0.701-1.129 0-2.057 0.339-2.778 1.012-0.72 0.673-1.081 1.53-1.081 2.576 0 0.874 0.278 1.633 0.834 2.271 0.549 0.644 1.411 1.207 2.576 1.702l3.616 1.553z"></path>
<path fill="#003d6e" d="M0 0.192h32.427v3.408h-29.124v10.696h25.821v-2.805h-12.933v-3.408h16.236v23.725h-32.427v-3.408h29.124v-10.696h-25.821v2.805h12.933v3.408h-16.237v-23.725z"></path>
<path fill="#a8d4af" d="M16.22 3.994h16.208v0.392h-16.208v-0.392z"></path>
<path fill="#a8d4af" d="M0.013 24.329h16.208v0.392h-16.208v-0.392z"></path>
<path fill="#a8d4af" d="M16.22 6.405h16.208v0.392h-16.208v-0.392z"></path>
<path fill="#a8d4af" d="M0.013 26.739h16.208v0.392h-16.208v-0.392z"></path>
<path fill="#a8d4af" d="M16.22 4.825h16.208v0.393h-16.208v-0.393z"></path>
<path fill="#a8d4af" d="M0.013 25.16h16.208v0.393h-16.208v-0.393z"></path>
<path fill="#a8d4af" d="M16.22 7.236h16.208v0.393h-16.208v-0.393z"></path>
<path fill="#a8d4af" d="M0.013 27.57h16.208v0.392h-16.208v-0.392z"></path>
<path fill="#a8d4af" d="M16.22 5.654h16.208v0.392h-16.208v-0.392z"></path>
<path fill="#a8d4af" d="M0.013 25.988h16.208v0.392h-16.208v-0.392z"></path>
</svg>
