<!-- Generated by IcoMoon.io -->
<svg version="1.1" xmlns="http://www.w3.org/2000/svg" width="33" height="32" viewBox="0 0 33 32">
<title>logo-small</title>
<path fill="#003d6e" d="M0 0.192h32.427v3.408h-29.124v10.696h25.821v-2.805h-12.933v-3.408h16.236v23.725h-32.427v-3.408h29.124v-10.696h-25.821v2.805h12.933v3.408h-16.237v-23.725z"></path>
<path fill="#a8d4af" d="M16.22 3.996h16.208v0.392h-16.208v-0.392z"></path>
<path fill="#a8d4af" d="M0.013 24.33h16.208v0.392h-16.208v-0.392z"></path>
<path fill="#a8d4af" d="M16.22 6.404h16.208v0.392h-16.208v-0.392z"></path>
<path fill="#a8d4af" d="M0.013 26.739h16.208v0.392h-16.208v-0.392z"></path>
<path fill="#a8d4af" d="M16.22 4.826h16.208v0.392h-16.208v-0.392z"></path>
<path fill="#a8d4af" d="M0.013 25.159h16.208v0.392h-16.208v-0.392z"></path>
<path fill="#a8d4af" d="M16.22 7.237h16.208v0.393h-16.208v-0.393z"></path>
<path fill="#a8d4af" d="M0.013 27.571h16.208v0.392h-16.208v-0.392z"></path>
<path fill="#a8d4af" d="M16.22 5.654h16.208v0.392h-16.208v-0.392z"></path>
<path fill="#a8d4af" d="M0.013 25.987h16.208v0.392h-16.208v-0.392z"></path>
</svg>
