<!-- Generated by IcoMoon.io -->
<svg version="1.1" xmlns="http://www.w3.org/2000/svg" width="186" height="32" viewBox="0 0 186 32">
<title>logo</title>
<path d="M33.261 0l-0.097 32h152.921l0.097-32h-152.921zM64.485 16.388c0 3.879-1.067 6.982-3.297 9.212s-5.236 3.394-9.018 3.394c-1.164 0-2.23-0.097-3.297-0.388s-2.036-0.582-2.909-1.067c-2.036-1.067-3.588-2.618-4.655-4.655-1.067-1.939-1.648-4.17-1.648-6.691 0-2.036 0.291-3.879 0.97-5.527s1.648-3.103 3.006-4.364c1.164-1.067 2.424-1.842 3.879-2.424s3.103-0.776 4.945-0.776c2.327 0 4.461 0.388 6.206 1.261s3.2 2.133 4.364 3.879l-2.424 1.939c-0.873-1.455-2.036-2.618-3.297-3.394-1.358-0.776-2.909-1.164-4.655-1.164-2.909 0-5.236 0.97-6.982 2.909s-2.715 4.461-2.715 7.564c0 2.909 0.873 5.333 2.715 7.273 1.842 1.842 4.17 2.812 6.982 2.812 2.521 0 4.558-0.776 6.206-2.23s2.521-3.491 2.715-5.818h-7.273v-2.618h10.182v0.873zM82.521 6.4h-6.982v21.915h-3.006v-21.915h-6.982v-2.812h16.97v2.812zM104.824 28.315h-3.006v-12.412h-13.091v12.412h-2.909v-24.727h2.909v9.503h13.091v-9.503h3.006v24.727zM123.055 28.315l-9.018-11.733h-0.388v11.733h-2.909v-24.727h5.818c1.648 0 2.909 0.097 3.685 0.291s1.455 0.485 2.036 0.97c0.776 0.582 1.261 1.358 1.745 2.327 0.388 0.97 0.582 2.036 0.582 3.2 0 2.036-0.582 3.588-1.745 4.558-1.164 1.067-2.812 1.552-4.945 1.552h-0.582l9.406 11.733h-3.685zM142.351 6.303h-10.085v7.079h10.085v2.715h-10.085v9.406h10.085v2.715h-12.994v-24.63h12.994v2.715zM160.388 6.303h-10.085v7.079h10.085v2.715h-10.085v9.406h10.085v2.715h-12.994v-24.63h12.994v2.715zM177.067 26.861c-1.455 1.358-3.394 2.036-5.721 2.036-1.939 0-3.588-0.485-4.945-1.455s-2.23-2.424-2.618-4.267l2.618-1.358c0.388 1.455 0.97 2.618 1.745 3.394 0.873 0.776 1.842 1.164 3.103 1.164 1.455 0 2.715-0.388 3.588-1.261s1.358-1.939 1.358-3.297c0-1.067-0.291-2.036-0.97-2.909-0.679-0.776-1.552-1.455-2.909-2.036l-3.006-1.261c-1.649-0.679-2.909-1.552-3.685-2.618s-1.164-2.327-1.164-3.879c0-1.745 0.679-3.2 1.939-4.364s3.006-1.745 5.042-1.745c1.455 0 2.812 0.291 3.879 0.97 1.067 0.582 1.939 1.551 2.521 2.812l-2.424 1.551c-0.582-0.97-1.164-1.649-1.842-2.133s-1.455-0.679-2.327-0.679c-1.067 0-2.036 0.291-2.715 0.97s-1.067 1.551-1.067 2.618c0 0.873 0.291 1.649 0.776 2.23 0.582 0.679 1.358 1.164 2.521 1.745l3.491 1.552c1.649 0.679 2.812 1.552 3.685 2.715 0.776 1.164 1.261 2.521 1.261 4.073 0 2.23-0.776 3.976-2.133 5.43z"></path>
<path d="M121.697 10.376c0-1.552-0.388-2.715-1.164-3.297-0.776-0.679-2.327-0.97-4.558-0.97h-2.23v8.242h2.23c2.327 0 3.879-0.291 4.655-0.873 0.679-0.582 1.067-1.649 1.067-3.103z"></path>
<path d="M0 0.388v23.564h15.806v-3.491h-12.606v-2.715h25.212v10.667h-28.412v3.394h31.612v-23.758h-15.806v3.394h12.606v2.812h-25.212v-10.667h28.412v-3.394h-31.612z"></path>
</svg>
