<!-- Generated by IcoMoon.io -->
<svg version="1.1" xmlns="http://www.w3.org/2000/svg" width="223" height="32" viewBox="0 0 223 32">
<title>logo-title</title>
<path d="M16.974 32c-2.434 0-4.695-0.377-6.767-1.146-2.088-0.785-3.878-1.9-5.401-3.344-1.492-1.429-2.669-3.125-3.517-5.056-0.864-1.947-1.288-4.098-1.288-6.453 0-2.34 0.424-4.475 1.272-6.422 0.848-1.963 2.041-3.659 3.564-5.103s3.329-2.528 5.401-3.282c2.104-0.785 4.412-1.193 6.909-1.193 2.905 0 5.496 0.487 7.788 1.445 2.292 0.974 4.177 2.355 5.668 4.177l-5.543 5.009c-1.052-1.146-2.198-1.994-3.423-2.544-1.209-0.581-2.544-0.879-4.051-0.879-1.319 0-2.528 0.204-3.611 0.612s-2.010 1.005-2.764 1.806c-0.769 0.769-1.366 1.68-1.806 2.764-0.408 1.052-0.612 2.261-0.612 3.611 0 1.288 0.204 2.481 0.612 3.564 0.44 1.083 1.036 2.026 1.806 2.811 0.769 0.769 1.664 1.366 2.732 1.806 1.083 0.408 2.277 0.612 3.564 0.612s2.544-0.204 3.784-0.612c1.225-0.44 2.481-1.178 3.737-2.198l4.883 6.108c-1.759 1.256-3.8 2.23-6.108 2.905-2.34 0.675-4.601 1.005-6.83 1.005zM22.202 26.944v-11.604h7.694v12.75l-7.694-1.146z"></path>
<path d="M43.289 31.388v-23.867h-9.452v-6.909h27.556v6.909h-9.405v23.867h-8.699z"></path>
<path d="M86.532 0.612h8.699v30.775h-8.699v-30.775zM74.661 31.388h-8.699v-30.775h8.699v30.775zM87.144 19.392h-13.095v-7.207h13.095v7.207z"></path>
<path d="M102.705 31.388v-30.775h14.069c2.811 0 5.229 0.455 7.254 1.366 2.057 0.911 3.627 2.23 4.742 3.957 1.115 1.696 1.664 3.721 1.664 6.061 0 2.308-0.55 4.318-1.664 6.029-1.115 1.664-2.701 2.968-4.742 3.863-2.025 0.879-4.444 1.319-7.254 1.319h-9.233l3.863-3.643v11.823h-8.699zM121.735 31.388l-7.647-11.211h9.28l7.694 11.211h-9.327zM111.403 20.491l-3.863-4.004h8.699c1.821 0 3.172-0.393 4.051-1.193 0.911-0.785 1.366-1.884 1.366-3.297 0-1.429-0.455-2.544-1.366-3.344-0.879-0.785-2.23-1.193-4.051-1.193h-8.699l3.863-4.004v17.036z"></path>
<path d="M144.565 12.53h14.289v6.501h-14.289v-6.5zM145.178 24.667h16.094v6.72h-24.714v-30.775h24.133v6.72h-15.513v17.335z"></path>
<path d="M175.419 12.53h14.289v6.501h-14.289v-6.5zM176.031 24.667h16.094v6.72h-24.714v-30.775h24.149v6.72h-15.513v17.335z"></path>
<path d="M209.099 32c-2.528 0-4.946-0.314-7.301-0.926-2.308-0.644-4.208-1.46-5.668-2.465l2.858-6.422c1.382 0.879 2.968 1.617 4.742 2.198 1.821 0.55 3.627 0.832 5.401 0.832 1.209 0 2.167-0.11 2.905-0.314 0.738-0.236 1.256-0.534 1.586-0.879 0.345-0.377 0.534-0.817 0.534-1.319 0-0.707-0.314-1.256-0.974-1.664-0.644-0.408-1.476-0.754-2.512-1.005-1.021-0.267-2.167-0.534-3.423-0.785-1.225-0.267-2.481-0.597-3.737-1.005-1.225-0.408-2.355-0.942-3.392-1.586-1.021-0.675-1.869-1.539-2.512-2.591-0.644-1.083-0.974-2.449-0.974-4.082 0-1.853 0.502-3.517 1.492-5.009 1.021-1.492 2.544-2.701 4.569-3.611s4.538-1.366 7.568-1.366c2.025 0 4.004 0.236 5.935 0.707 1.963 0.44 3.706 1.099 5.229 1.978l-2.685 6.469c-1.46-0.785-2.921-1.382-4.349-1.759-1.429-0.408-2.826-0.612-4.177-0.612-1.193 0-2.167 0.126-2.905 0.393-0.738 0.236-1.256 0.55-1.586 0.973-0.33 0.408-0.487 0.879-0.487 1.413 0 0.675 0.314 1.209 0.926 1.633 0.644 0.377 1.476 0.707 2.512 0.973 1.052 0.236 2.198 0.487 3.423 0.754 1.256 0.267 2.512 0.597 3.737 1.005 1.256 0.377 2.402 0.911 3.423 1.586 1.021 0.644 1.853 1.507 2.465 2.591 0.644 1.052 0.974 2.387 0.974 4.004 0 1.79-0.518 3.439-1.539 4.962-0.989 1.492-2.512 2.701-4.522 3.611-1.978 0.864-4.491 1.319-7.537 1.319z"></path>
</svg>
