<!-- Generated by IcoMoon.io -->
<svg version="1.1" xmlns="http://www.w3.org/2000/svg" width="32" height="32" viewBox="0 0 32 32">
<title>phone</title>
<path d="M14.104 0.119c-5.215 0.593-9.956 3.911-12.326 8.77-0.474 1.067-0.83 1.778-1.067 2.963-0.948 3.556-0.593 7.23 0.83 10.548l0.237 0.593-0.948 4.504c-0.474 2.489-0.83 4.504-0.83 4.504s2.015-0.356 4.504-0.83l4.504-0.948 0.593 0.237c1.185 0.593 2.726 0.948 4.267 1.185 1.067 0.119 3.437 0.119 4.622 0 1.778-0.237 3.081-0.711 4.622-1.541 4.385-2.133 7.467-6.163 8.533-11.022 0.474-2.015 0.474-4.622 0-6.637-0.474-2.37-1.541-4.504-3.081-6.519-0.474-0.711-2.015-2.133-2.726-2.726-2.37-1.778-4.978-2.963-7.822-3.319-0.948 0.119-2.963 0.119-3.911 0.237zM17.659 1.659c2.607 0.237 5.333 1.422 7.467 3.081 0.593 0.474 1.896 1.778 2.252 2.252 3.437 4.385 4.148 10.311 1.659 15.17-1.422 2.963-3.793 5.215-6.756 6.637-3.081 1.422-6.4 1.778-9.719 0.948-0.83-0.237-1.541-0.474-2.489-0.948l-0.83-0.356-3.556 0.711c-2.015 0.356-3.674 0.711-3.674 0.711s0.356-1.659 0.711-3.674l0.711-3.674-0.356-0.83c-1.422-3.081-1.778-6.281-0.948-9.481 1.422-5.57 6.4-9.956 12.444-10.548 0.711-0.119 2.37-0.119 3.081 0z"></path>
<path d="M11.259 8.533c0.237 0.119 1.896 1.778 2.252 2.133 0.474 0.593 0.356 0.948-0.237 1.659-1.067 1.185-1.304 2.726-0.593 4.148 0.237 0.356 0.474 0.593 1.304 1.541 0.83 0.83 1.185 1.067 1.541 1.304 0.593 0.356 1.067 0.474 1.659 0.474 0.948 0 1.659-0.237 2.489-0.948 0.593-0.593 1.067-0.593 1.541-0.356 0.119 0.119 0.711 0.593 1.304 1.185 1.185 1.185 1.185 1.304 1.067 1.778 0 0.237-0.83 1.185-1.422 1.541s-0.948 0.474-2.133 0.474c-1.185 0-1.896-0.119-2.844-0.356-2.963-0.711-5.452-2.607-6.993-5.096-0.593-0.948-1.067-2.015-1.304-3.2-0.237-0.948-0.356-1.659-0.356-2.844 0-1.422 0.119-1.896 0.948-2.726 0.711-0.83 1.304-1.067 1.778-0.711z"></path>
</svg>
