<!-- Generated by IcoMoon.io -->
<svg version="1.1" xmlns="http://www.w3.org/2000/svg" width="32" height="32" viewBox="0 0 32 32">
<title>skype</title>
<path d="M8.533 0c-2.37 0.356-4.030 1.185-5.689 2.844s-2.607 3.556-2.844 5.926c-0.119 1.422 0.119 3.319 0.711 4.622 0.119 0.356 0.119 0.356 0.119 1.778s0 2.252 0.237 3.319c0.83 4.504 3.793 8.533 7.941 10.548 1.422 0.711 2.844 1.185 4.504 1.422 0.593 0.119 1.067 0.119 2.252 0.119h1.541l0.711 0.356c0.711 0.356 1.541 0.593 2.37 0.83 0.474 0.119 0.83 0.119 1.896 0.119 1.185 0 1.422 0 2.015-0.119 1.896-0.474 3.437-1.185 4.859-2.607 0.83-0.83 1.422-1.541 1.896-2.607 1.304-2.607 1.304-5.807 0-8.415l-0.237-0.356v-1.541c0-2.133-0.119-3.437-0.83-5.215-1.778-5.333-6.519-9.126-12.089-9.956-0.948-0.119-2.37-0.119-3.081-0.119h-0.711l-0.593-0.237c-1.185-0.474-2.37-0.711-3.793-0.711-0.593 0-1.185 0-1.185 0zM11.378 1.659c0.711 0.119 1.304 0.356 2.015 0.711l0.474 0.237 0.474-0.119c0.711-0.119 2.489-0.119 3.319 0 6.756 0.948 11.733 6.637 11.615 13.274 0 0.474 0 1.185-0.119 1.422l-0.119 0.593 0.356 0.593c0.593 1.185 0.83 2.133 0.948 3.437 0.119 2.015-0.474 3.793-1.778 5.333-1.422 1.896-3.556 2.963-6.044 3.081-1.541 0.119-3.2-0.356-4.504-1.067l-0.474-0.237-0.948 0.119c-2.252 0.119-4.741-0.356-6.756-1.304-1.541-0.711-2.489-1.422-3.674-2.607-1.896-1.896-3.081-4.267-3.674-6.874-0.237-1.185-0.237-3.081-0.119-4.267 0.119-0.356 0-0.356-0.119-0.83-0.237-0.593-0.593-1.541-0.711-2.252 0.119-0.593 0.119-1.778 0.237-2.607 0.593-3.319 3.319-6.044 6.756-6.637 0.593-0.119 2.133-0.119 2.844 0z"></path>
<path d="M17.067 7.467c0.83 0.119 1.304 0.356 2.133 0.711 1.541 0.711 2.37 1.659 2.489 2.726 0.119 0.948-0.593 1.659-1.541 1.659-0.593 0-0.83-0.119-1.659-1.067-0.593-0.593-0.83-0.83-1.185-0.948-1.422-0.711-3.437-0.593-4.385 0.119-0.83 0.593-1.067 1.778-0.474 2.489 0.593 0.593 1.067 0.83 3.911 1.422 2.37 0.474 2.844 0.711 3.674 1.067 0.593 0.356 1.422 0.948 1.778 1.541 0.474 0.711 0.83 1.896 0.711 2.963-0.119 1.896-1.067 3.2-2.844 4.030-1.304 0.593-2.607 0.83-4.385 0.83-1.659 0-2.963-0.356-4.030-0.83-1.659-0.83-2.607-2.015-2.607-3.2 0-0.83 0.593-1.422 1.422-1.422 0.711 0 0.83 0.119 2.133 1.659 0.711 0.711 1.304 1.067 2.252 1.304 0.711 0.119 1.896 0.119 2.37-0.119 1.185-0.356 1.778-1.067 1.896-2.015 0.119-0.83-0.356-1.541-1.067-1.778-0.237-0.119-1.541-0.474-2.963-0.83-1.304-0.711-2.607-1.185-2.844-1.185-1.659-0.593-2.607-1.541-3.081-2.963-0.119-0.356-0.119-0.593-0.119-1.304 0-0.948 0.119-1.422 0.474-2.133 0.711-1.422 2.37-2.489 4.622-2.844 0.711-0.119 2.489-0.119 3.319 0.119z"></path>
</svg>
