<!-- Generated by IcoMoon.io -->
<svg version="1.1" xmlns="http://www.w3.org/2000/svg" width="32" height="32" viewBox="0 0 32 32">
<title>telegram</title>
<path d="M16 32c-8.8 0-16-7.2-16-16s7.2-16 16-16 16 7.2 16 16-7.2 16-16 16zM16 1.143c-8.229 0-14.857 6.629-14.857 14.857s6.629 14.857 14.857 14.857c8.229 0 14.857-6.629 14.857-14.857s-6.629-14.857-14.857-14.857zM19.657 24.229c-0.114 0-0.229 0-0.343-0.114l-3.657-2.743-3.657 2.743c-0.229 0.114-0.457 0.229-0.686 0.457-0.114-0.229-0.114-0.457-0.229-0.686l-2.286-6.286-3.771-1.486c-0.229-0.114-0.457-0.343-0.457-0.571s0.114-0.457 0.343-0.571l18.514-7.314c0.229-0.114 0.457 0 0.571 0.114s0.229 0.343 0.229 0.571l-4 15.429c0 0.229-0.229 0.343-0.343 0.343-0.114 0.114-0.114 0.114-0.229 0.114zM16 20.229l3.314 2.514 3.543-13.486-16.114 6.286 2.4 1.029 9.371-4.8c0.229-0.114 0.571 0 0.686 0.114s0.114 0.571 0 0.686l-5.257 6.057 2.057 1.6zM13.486 19.771l-0.8 2.4 1.943-1.486-1.143-0.914zM9.943 17.486l1.714 4.457 1.143-3.314c0 0 0.114-0.114 0.114-0.229l3.771-4.343-6.743 3.429z"></path>
</svg>
