<!-- Generated by IcoMoon.io -->
<svg version="1.1" xmlns="http://www.w3.org/2000/svg" width="30" height="32" viewBox="0 0 30 32">
<title>viber</title>
<path d="M11.141 0c-2.015 0.119-4.504 0.474-5.215 0.593-1.422 0.356-2.489 1.067-3.556 2.133s-1.778 2.37-2.015 3.911c-0.237 1.304-0.474 7.23-0.356 10.311 0.119 2.015 0.119 3.319 0.237 3.911 0.237 1.778 1.304 3.674 2.844 4.741 1.185 0.948 2.37 1.304 4.267 1.541l0.711 0.119v2.37c0 2.252 0 2.37 0.119 2.37 0 0 1.778-0.948 3.793-2.252l3.793-2.133h0.593c0.356 0 1.304-0.119 2.015-0.119 2.607-0.119 4.859-0.356 5.807-0.711 2.489-0.711 4.504-2.963 5.096-5.689 0.237-1.067 0.356-3.437 0.356-7.467 0-3.911-0.119-6.163-0.356-7.23-0.356-1.541-1.067-2.844-2.133-4.030-0.83-0.83-1.896-1.422-3.081-1.778-0.83-0.237-3.081-0.474-5.807-0.711-1.185 0.119-5.807 0.119-7.111 0.119zM16.83 1.422c2.489 0 5.689 0.356 6.637 0.593 2.015 0.474 3.674 2.133 4.267 4.148 0.356 1.067 0.474 2.963 0.474 7.704 0 6.4-0.119 7.585-1.304 9.244-0.356 0.593-1.067 1.304-1.659 1.659-0.474 0.356-1.185 0.593-1.659 0.83-0.948 0.237-4.030 0.593-7.111 0.711h-1.185l-2.963 1.659c-1.541 0.83-2.844 1.659-2.844 1.659s0-0.83 0-1.778v-1.778l-1.422-0.119c-0.83-0.119-1.659-0.237-1.896-0.237-1.659-0.474-3.081-1.541-3.793-3.081-0.474-0.948-0.593-1.541-0.711-3.081-0.237-3.674-0.237-9.007 0-11.97 0.237-2.844 2.37-4.978 5.096-5.57 0.356-0.119 2.489-0.356 3.674-0.474 0.948-0.119 4.148-0.119 4.504-0.119 0.237 0 1.067 0 1.896 0z"></path>
<path d="M14.815 5.57h0.356c0.948 0 2.252 0.356 3.2 0.83 2.133 1.067 3.319 2.844 3.674 5.452 0 0.356 0.119 0.83 0.119 0.948v0.356h1.422v-0.711c-0.237-3.556-2.015-6.281-4.978-7.585-0.948-0.474-2.37-0.711-3.319-0.711h-0.474v1.422z"></path>
<path d="M14.815 8.296h0.356c0.474 0 1.304 0.119 1.778 0.356 1.541 0.593 2.37 2.015 2.607 3.911v0.593h1.422v-0.237c0-0.474-0.119-1.541-0.356-2.015-0.711-2.37-2.607-3.674-5.096-3.911h-0.593v1.304z"></path>
<path d="M14.815 11.022h0.356c1.067 0.119 1.422 0.474 1.541 1.541l0.119 0.474h1.422v-0.474c-0.119-0.948-0.356-1.541-0.83-2.133-0.474-0.474-1.185-0.83-2.133-0.83h-0.474v1.422z"></path>
<path d="M9.244 7.822c0.356 0.237 2.015 1.896 2.015 2.133 0.119 0.237 0.119 0.593 0 0.711 0 0.119-0.237 0.356-0.474 0.593-0.593 0.711-0.83 1.304-0.83 2.252 0 0.711 0.119 1.304 0.474 1.778 0.119 0.237 0.593 0.83 1.185 1.304 1.185 1.185 1.659 1.422 2.726 1.422 0.83 0 1.541-0.237 2.133-0.83 0.474-0.356 0.593-0.474 1.067-0.474 0.237 0 2.37 2.133 2.489 2.489s0 0.593-0.593 1.304c-0.83 0.83-1.541 1.067-2.963 1.067-3.437-0.237-6.281-1.778-8.178-4.622-1.067-1.659-1.659-3.674-1.659-5.926 0-1.067 0.237-1.659 0.948-2.489 0.83-0.948 1.185-1.067 1.659-0.711z"></path>
</svg>
