<svg aria-hidden="true" style="position: absolute; width: 0; height: 0; overflow: hidden;" version="1.1" xmlns="http://www.w3.org/2000/svg" xmlns:xlink="http://www.w3.org/1999/xlink">
<defs>
<symbol id="icon-angle-down" viewBox="0 0 55 32">
<path d="M6.4 0l21.029 19.657 21.029-19.657 6.4 5.943-27.429 26.057-27.429-26.057 6.4-5.943z"></path>
</symbol>
<symbol id="icon-angle-left" viewBox="0 0 19 32">
<path d="M18.667 3.733l-11.467 12.267 11.467 12.267-3.467 3.733-15.2-16 15.2-16 3.467 3.733z"></path>
</symbol>
<symbol id="icon-angle-right" viewBox="0 0 19 32">
<path d="M0 28.267l11.467-12.267-11.467-12.267 3.467-3.733 15.2 16-15.2 16-3.467-3.733z"></path>
</symbol>
<symbol id="icon-angle-up" viewBox="0 0 55 32">
<path d="M48.457 32l-21.029-19.657-21.029 19.657-6.4-5.943 27.429-26.057 27.429 26.057-6.4 5.943z"></path>
</symbol>
<symbol id="icon-arrow-2-bottom-left-45" viewBox="0 0 32 32">
<path d="M0.6 3c0.4-0.4 0.8-0.6 1.4-0.6 1.2 0 2 0.8 2 2v20.8l24.6-24.6c0.8-0.8 2-0.8 2.8 0s0.8 2 0 2.8l-24.6 24.6h20.8c1.2 0 2 0.8 2 2s-0.8 2-2 2h-25.6c0 0 0 0 0 0v0c0 0 0 0 0 0v0c0 0 0 0 0 0s0 0 0 0 0 0 0 0v0c0 0 0 0 0 0v0c0 0 0 0 0 0-0.2 0-0.6 0-0.8-0.2-0.2 0-0.4-0.2-0.6-0.4 0 0 0 0 0 0v0c0 0 0 0 0 0v0c0 0 0 0 0 0-0.2-0.2-0.2-0.4-0.4-0.6s-0.2-0.6-0.2-0.8v0-25.6c0-0.6 0.2-1 0.6-1.4z"></path>
</symbol>
<symbol id="icon-arrow-2-down" viewBox="0 0 30 32">
<path d="M0 17.321c0-0.44 0.147-0.734 0.44-1.028 0.587-0.587 1.468-0.587 2.055 0l10.716 10.716v-25.541c0-0.881 0.587-1.468 1.468-1.468s1.468 0.587 1.468 1.468v25.541l10.716-10.716c0.587-0.587 1.468-0.587 2.055 0s0.587 1.468 0 2.055l-13.211 13.211c0 0 0 0 0 0v0c0 0 0 0 0 0v0c0 0 0 0 0 0s0 0 0 0 0 0 0 0v0c0 0 0 0 0 0v0c0 0 0 0 0 0-0.147 0.147-0.294 0.294-0.44 0.294s-0.294 0.147-0.44 0.147c0 0 0 0 0 0v0c0 0 0 0-0.147 0v0c0 0 0 0 0 0-0.147 0-0.294 0-0.44-0.147-0.147 0-0.294-0.147-0.44-0.294v0l-13.211-13.211c-0.44-0.294-0.587-0.734-0.587-1.028z"></path>
</symbol>
<symbol id="icon-arrow-2-left" viewBox="0 0 35 32">
<path d="M15.92 0c0.478 0 0.796 0.159 1.114 0.478 0.637 0.637 0.637 1.592 0 2.229l-11.622 11.622h27.701c0.955 0 1.592 0.637 1.592 1.592s-0.637 1.592-1.592 1.592h-27.701l11.622 11.622c0.637 0.637 0.637 1.592 0 2.229s-1.592 0.637-2.229 0l-14.328-14.328c0 0 0 0 0 0v0c0 0 0 0 0 0v0c0 0 0 0 0 0s0 0 0 0 0 0 0 0v0c0 0 0 0 0 0v0c0 0 0 0 0 0-0.159-0.159-0.318-0.318-0.318-0.478-0.159-0.159-0.159-0.318-0.159-0.478 0 0 0 0 0 0v0c0 0 0 0 0-0.159v0c0 0 0 0 0 0 0-0.159 0-0.318 0.159-0.478 0-0.159 0.159-0.318 0.318-0.478v0l14.328-14.328c0.318-0.478 0.796-0.637 1.114-0.637z"></path>
</symbol>
<symbol id="icon-arrow-2-right" viewBox="0 0 35 32">
<path d="M18.786 32c-0.478 0-0.796-0.159-1.114-0.478-0.637-0.637-0.637-1.592 0-2.229l11.622-11.622h-27.701c-0.955 0-1.592-0.637-1.592-1.592s0.637-1.592 1.592-1.592h27.701l-11.622-11.622c-0.637-0.637-0.637-1.592 0-2.229s1.592-0.637 2.229 0l14.328 14.328c0 0 0 0 0 0v0c0 0 0 0 0 0v0c0 0 0 0 0 0s0 0 0 0 0 0 0 0v0c0 0 0 0 0 0v0c0 0 0 0 0 0 0.159 0.159 0.318 0.318 0.318 0.478s0.159 0.318 0.159 0.478c0 0 0 0 0 0v0c0 0 0 0 0 0.159v0c0 0 0 0 0 0 0 0.159 0 0.318-0.159 0.478 0 0.159-0.159 0.318-0.318 0.478v0l-14.328 14.328c-0.318 0.478-0.796 0.637-1.114 0.637z"></path>
</symbol>
<symbol id="icon-arrow-2-top-right-45" viewBox="0 0 32 32">
<path d="M31.4 29c-0.4 0.4-0.8 0.6-1.4 0.6-1.2 0-2-0.8-2-2v-20.8l-24.6 24.6c-0.8 0.8-2 0.8-2.8 0s-0.8-2 0-2.8l24.6-24.6h-20.8c-1.2 0-2-0.8-2-2s0.8-2 2-2h25.6c0 0 0 0 0 0v0c0 0 0 0 0 0v0c0 0 0 0 0 0s0 0 0 0 0 0 0 0v0c0 0 0 0 0 0v0c0 0 0 0 0 0 0.2 0 0.6 0 0.8 0.2 0.2 0 0.4 0.2 0.6 0.4 0 0 0 0 0 0v0c0 0 0 0 0 0v0c0 0 0 0 0 0 0.2 0.2 0.2 0.4 0.4 0.6s0.2 0.6 0.2 0.8v0 25.6c0 0.6-0.2 1-0.6 1.4z"></path>
</symbol>
<symbol id="icon-arrow-2-up" viewBox="0 0 30 32">
<path d="M29.505 14.679c0 0.44-0.147 0.734-0.44 1.028-0.587 0.587-1.468 0.587-2.055 0l-10.862-10.716v25.541c0 0.881-0.587 1.468-1.468 1.468s-1.468-0.587-1.468-1.468v-25.541l-10.716 10.716c-0.587 0.587-1.468 0.587-2.055 0s-0.587-1.468 0-2.055l13.211-13.211c0 0 0 0 0 0v0c0 0 0 0 0 0v0c0 0 0 0 0 0s0 0 0 0 0 0 0 0v0c0 0 0 0 0 0v0c0 0 0 0 0 0 0.147-0.147 0.294-0.294 0.44-0.294 0.294-0.147 0.44-0.147 0.587-0.147 0 0 0 0 0 0v0c0 0 0 0 0.147 0v0c0 0 0 0 0 0 0.147 0 0.294 0 0.44 0.147 0.147 0 0.294 0.147 0.44 0.294v0l13.211 13.211c0.44 0.294 0.587 0.734 0.587 1.028z"></path>
</symbol>
<symbol id="icon-arrow-3-down" viewBox="0 0 22 32">
<path d="M9.614 0v25.957l-7.416-7.416-2.197 2.335 11.262 11.124 11.124-11.124-2.197-2.335-7.416 7.416v-25.957z"></path>
</symbol>
<symbol id="icon-arrow-3-left" viewBox="0 0 46 32">
<path d="M45.742 13.742h-36.908l10.405-10.601-3.141-3.141-16.098 16.098 16.098 15.902 3.141-3.141-10.405-10.601h36.908z"></path>
</symbol>
<symbol id="icon-arrow-3-right" viewBox="0 0 46 32">
<path d="M0 18.258h37.104l-10.601 10.601 3.337 3.141 15.902-15.902-15.902-16.098-3.337 3.141 10.601 10.601h-37.104z"></path>
</symbol>
<symbol id="icon-arrow-3-up" viewBox="0 0 22 32">
<path d="M12.773 32v-25.82l7.416 7.279 2.197-2.197-11.124-11.262-11.262 11.262 2.197 2.197 7.416-7.279v25.82z"></path>
</symbol>
<symbol id="icon-arrow-left" viewBox="0 0 191 32">
<path d="M18.489 0l3.081 3.556-11.852 10.193h180.859v4.741h-180.859l11.852 9.956-3.081 3.556-16.593-14.222c-0.711-0.474-1.185-1.185-1.896-1.659 0.711-0.711 1.185-1.185 1.896-1.896l16.593-14.222z"></path>
</symbol>
<symbol id="icon-arrow-right" viewBox="0 0 191 32">
<path d="M172.326 32l-3.319-3.556 11.615-9.956h-180.622v-4.741h180.859l-11.615-9.956 3.081-3.793 16.593 14.222c0.711 0.474 1.185 1.185 1.896 1.659-0.711 0.711-1.185 1.185-1.896 1.896l-16.593 14.222z"></path>
</symbol>
<symbol id="icon-calendar" viewBox="0 0 29 32">
<path d="M26.23 2.973h-1.399v-2.973h-2.973v2.973h-14.514v-2.973h-2.973v2.973h-1.399c-1.574 0-2.973 1.224-2.973 2.798v23.257c0 1.574 1.399 2.973 2.973 2.973h23.257c1.574 0 2.973-1.399 2.973-2.973v-23.257c0-1.574-1.399-2.798-2.973-2.798zM26.23 29.202h-23.257v-19.060h23.257v19.060z"></path>
</symbol>
<symbol id="icon-call" viewBox="0 0 35 32">
<path d="M33.264 22.192c-2.405 0-4.732-0.359-6.903-1.004-0.684-0.215-1.447-0.054-1.975 0.43l-3.070 3.531c-5.534-2.42-10.716-6.991-13.474-12.243l3.813-2.976c0.528-0.502 0.684-1.201 0.469-1.828-0.724-1.99-1.095-4.123-1.095-6.328 0-0.968-0.88-1.775-1.936-1.775h-6.766c-1.056 0-2.327 0.43-2.327 1.775 0 16.653 15.116 30.492 33.264 30.492 1.388 0 1.936-1.129 1.936-2.115v-6.184c0-0.968-0.88-1.775-1.936-1.775z"></path>
</symbol>
<symbol id="icon-caret-down" viewBox="0 0 58 32">
<path d="M29.474 32l-29.474-32h58.105l-28.632 32z"></path>
</symbol>
<symbol id="icon-caret-up" viewBox="0 0 58 32">
<path d="M29.474 0l29.474 32h-58.947l29.474-32z"></path>
</symbol>
<symbol id="icon-file" viewBox="0 0 29 32">
<path d="M27.216 14.186l-13.361 13.361c-2.639 2.639-6.763 2.639-9.402 0s-2.639-6.763 0-9.402l14.515-14.515c1.649-1.649 4.289-1.649 5.773 0 1.649 1.649 1.649 4.289 0 5.773l-12.206 12.206c-0.66 0.66-1.649 0.66-2.309 0s-0.66-1.649 0-2.309l11.052-11.052-1.649-1.649-11.052 11.052c-1.649 1.649-1.649 4.289 0 5.773 1.649 1.649 4.289 1.649 5.773 0l12.206-12.206c2.639-2.639 2.639-6.763 0-9.402s-6.763-2.639-9.402 0l-14.515 14.68c-3.464 3.464-3.464 9.237 0 12.866 3.464 3.464 9.237 3.464 12.866 0l13.361-13.361-1.649-1.814z"></path>
</symbol>
<symbol id="icon-logo" viewBox="0 0 186 32">
<path d="M33.261 0l-0.097 32h152.921l0.097-32h-152.921zM64.485 16.388c0 3.879-1.067 6.982-3.297 9.212s-5.236 3.394-9.018 3.394c-1.164 0-2.23-0.097-3.297-0.388s-2.036-0.582-2.909-1.067c-2.036-1.067-3.588-2.618-4.655-4.655-1.067-1.939-1.648-4.17-1.648-6.691 0-2.036 0.291-3.879 0.97-5.527s1.648-3.103 3.006-4.364c1.164-1.067 2.424-1.842 3.879-2.424s3.103-0.776 4.945-0.776c2.327 0 4.461 0.388 6.206 1.261s3.2 2.133 4.364 3.879l-2.424 1.939c-0.873-1.455-2.036-2.618-3.297-3.394-1.358-0.776-2.909-1.164-4.655-1.164-2.909 0-5.236 0.97-6.982 2.909s-2.715 4.461-2.715 7.564c0 2.909 0.873 5.333 2.715 7.273 1.842 1.842 4.17 2.812 6.982 2.812 2.521 0 4.558-0.776 6.206-2.23s2.521-3.491 2.715-5.818h-7.273v-2.618h10.182v0.873zM82.521 6.4h-6.982v21.915h-3.006v-21.915h-6.982v-2.812h16.97v2.812zM104.824 28.315h-3.006v-12.412h-13.091v12.412h-2.909v-24.727h2.909v9.503h13.091v-9.503h3.006v24.727zM123.055 28.315l-9.018-11.733h-0.388v11.733h-2.909v-24.727h5.818c1.648 0 2.909 0.097 3.685 0.291s1.455 0.485 2.036 0.97c0.776 0.582 1.261 1.358 1.745 2.327 0.388 0.97 0.582 2.036 0.582 3.2 0 2.036-0.582 3.588-1.745 4.558-1.164 1.067-2.812 1.552-4.945 1.552h-0.582l9.406 11.733h-3.685zM142.351 6.303h-10.085v7.079h10.085v2.715h-10.085v9.406h10.085v2.715h-12.994v-24.63h12.994v2.715zM160.388 6.303h-10.085v7.079h10.085v2.715h-10.085v9.406h10.085v2.715h-12.994v-24.63h12.994v2.715zM177.067 26.861c-1.455 1.358-3.394 2.036-5.721 2.036-1.939 0-3.588-0.485-4.945-1.455s-2.23-2.424-2.618-4.267l2.618-1.358c0.388 1.455 0.97 2.618 1.745 3.394 0.873 0.776 1.842 1.164 3.103 1.164 1.455 0 2.715-0.388 3.588-1.261s1.358-1.939 1.358-3.297c0-1.067-0.291-2.036-0.97-2.909-0.679-0.776-1.552-1.455-2.909-2.036l-3.006-1.261c-1.649-0.679-2.909-1.552-3.685-2.618s-1.164-2.327-1.164-3.879c0-1.745 0.679-3.2 1.939-4.364s3.006-1.745 5.042-1.745c1.455 0 2.812 0.291 3.879 0.97 1.067 0.582 1.939 1.551 2.521 2.812l-2.424 1.551c-0.582-0.97-1.164-1.649-1.842-2.133s-1.455-0.679-2.327-0.679c-1.067 0-2.036 0.291-2.715 0.97s-1.067 1.551-1.067 2.618c0 0.873 0.291 1.649 0.776 2.23 0.582 0.679 1.358 1.164 2.521 1.745l3.491 1.552c1.649 0.679 2.812 1.552 3.685 2.715 0.776 1.164 1.261 2.521 1.261 4.073 0 2.23-0.776 3.976-2.133 5.43z"></path>
<path d="M121.697 10.376c0-1.552-0.388-2.715-1.164-3.297-0.776-0.679-2.327-0.97-4.558-0.97h-2.23v8.242h2.23c2.327 0 3.879-0.291 4.655-0.873 0.679-0.582 1.067-1.649 1.067-3.103z"></path>
<path d="M0 0.388v23.564h15.806v-3.491h-12.606v-2.715h25.212v10.667h-28.412v3.394h31.612v-23.758h-15.806v3.394h12.606v2.812h-25.212v-10.667h28.412v-3.394h-31.612z"></path>
</symbol>
<symbol id="icon-logo-color" viewBox="0 0 191 32">
<path fill="#003d6e" style="fill: var(--color1, #003d6e)" d="M190.857 0h-156.763l-0.097 32h156.762l0.097-32z"></path>
<path fill="#fefefe" style="fill: var(--color2, #fefefe)" d="M55.673 15.563h10.454v0.828c0 3.881-1.129 6.946-3.392 9.195s-5.348 3.369-9.26 3.369c-1.194 0-2.328-0.12-3.404-0.368-1.082-0.247-2.074-0.61-2.984-1.081-2.080-1.11-3.687-2.645-4.816-4.606s-1.696-4.186-1.696-6.682c0-2.053 0.337-3.91 1.010-5.566 0.679-1.656 1.696-3.117 3.055-4.37 1.146-1.058 2.47-1.857 3.983-2.392 1.513-0.541 3.185-0.811 5.023-0.811 2.435 0 4.544 0.431 6.335 1.288 1.79 0.862 3.273 2.156 4.449 3.881l-2.529 1.973c-0.91-1.495-2.051-2.611-3.41-3.358s-2.943-1.121-4.745-1.121c-2.943 0-5.33 0.966-7.162 2.898-1.838 1.932-2.754 4.456-2.754 7.579 0 2.944 0.934 5.359 2.795 7.245s4.237 2.829 7.121 2.829c2.541 0 4.656-0.748 6.346-2.248s2.63-3.45 2.813-5.854h-7.233v-2.628zM74.405 28.3v-21.868h-7.168v-2.795h17.35v2.795h-7.133v21.868h-3.049zM87.95 28.3v-24.663h3.014v9.488h13.467v-9.488h3.067v24.663h-3.067v-12.38h-13.467v12.38h-3.014zM113.554 28.3v-24.663h5.951c1.702 0 2.943 0.092 3.735 0.276 0.791 0.19 1.488 0.506 2.086 0.955 0.75 0.569 1.335 1.34 1.749 2.3 0.419 0.96 0.626 2.024 0.626 3.192 0 2.018-0.578 3.553-1.743 4.606-1.158 1.052-2.861 1.576-5.099 1.576h-0.538l9.686 11.759h-3.829l-9.249-11.759h-0.431v11.759h-2.943zM116.497 6.115v8.252h2.299c2.357 0 3.935-0.293 4.733-0.885 0.798-0.587 1.193-1.616 1.193-3.088 0-1.581-0.407-2.691-1.229-3.329-0.822-0.633-2.387-0.949-4.697-0.949h-2.299zM132.529 28.3v-24.663h13.367v2.68h-10.353v7.073h10.353v2.732h-10.353v9.448h10.353v2.732h-13.367zM151.001 28.3v-24.663h13.367v2.68h-10.353v7.073h10.353v2.732h-10.353v9.448h10.353v2.732h-13.367zM178.698 14.603c1.649 0.684 2.896 1.593 3.735 2.726 0.833 1.139 1.253 2.478 1.253 4.026 0 2.271-0.738 4.1-2.222 5.486s-3.451 2.082-5.897 2.082c-1.998 0-3.67-0.494-5.023-1.489-1.347-0.995-2.257-2.409-2.73-4.238l2.73-1.317c0.371 1.495 0.981 2.628 1.826 3.393 0.85 0.77 1.914 1.156 3.197 1.156 1.512 0 2.736-0.425 3.67-1.271 0.933-0.851 1.4-1.95 1.4-3.312 0-1.098-0.325-2.059-0.975-2.869-0.656-0.817-1.637-1.501-2.954-2.064l-3.079-1.282c-1.685-0.684-2.943-1.564-3.765-2.645-0.827-1.075-1.241-2.369-1.241-3.87 0-1.754 0.667-3.203 2.009-4.347 1.336-1.144 3.043-1.719 5.123-1.719 1.525 0 2.842 0.316 3.953 0.943 1.118 0.627 1.986 1.558 2.607 2.783l-2.494 1.547c-0.562-0.955-1.2-1.662-1.903-2.128-0.704-0.466-1.502-0.701-2.387-0.701-1.129 0-2.057 0.339-2.778 1.012-0.72 0.673-1.081 1.53-1.081 2.576 0 0.874 0.278 1.633 0.834 2.271 0.549 0.644 1.411 1.207 2.576 1.702l3.616 1.553z"></path>
<path fill="#003d6e" style="fill: var(--color1, #003d6e)" d="M0 0.192h32.427v3.408h-29.124v10.696h25.821v-2.805h-12.933v-3.408h16.236v23.725h-32.427v-3.408h29.124v-10.696h-25.821v2.805h12.933v3.408h-16.237v-23.725z"></path>
<path fill="#a8d4af" style="fill: var(--color3, #a8d4af)" d="M16.22 3.994h16.208v0.392h-16.208v-0.392z"></path>
<path fill="#a8d4af" style="fill: var(--color3, #a8d4af)" d="M0.013 24.329h16.208v0.392h-16.208v-0.392z"></path>
<path fill="#a8d4af" style="fill: var(--color3, #a8d4af)" d="M16.22 6.405h16.208v0.392h-16.208v-0.392z"></path>
<path fill="#a8d4af" style="fill: var(--color3, #a8d4af)" d="M0.013 26.739h16.208v0.392h-16.208v-0.392z"></path>
<path fill="#a8d4af" style="fill: var(--color3, #a8d4af)" d="M16.22 4.825h16.208v0.393h-16.208v-0.393z"></path>
<path fill="#a8d4af" style="fill: var(--color3, #a8d4af)" d="M0.013 25.16h16.208v0.393h-16.208v-0.393z"></path>
<path fill="#a8d4af" style="fill: var(--color3, #a8d4af)" d="M16.22 7.236h16.208v0.393h-16.208v-0.393z"></path>
<path fill="#a8d4af" style="fill: var(--color3, #a8d4af)" d="M0.013 27.57h16.208v0.392h-16.208v-0.392z"></path>
<path fill="#a8d4af" style="fill: var(--color3, #a8d4af)" d="M16.22 5.654h16.208v0.392h-16.208v-0.392z"></path>
<path fill="#a8d4af" style="fill: var(--color3, #a8d4af)" d="M0.013 25.988h16.208v0.392h-16.208v-0.392z"></path>
</symbol>
<symbol id="icon-logo-small" viewBox="0 0 33 32">
<path fill="#003d6e" style="fill: var(--color1, #003d6e)" d="M0 0.192h32.427v3.408h-29.124v10.696h25.821v-2.805h-12.933v-3.408h16.236v23.725h-32.427v-3.408h29.124v-10.696h-25.821v2.805h12.933v3.408h-16.237v-23.725z"></path>
<path fill="#a8d4af" style="fill: var(--color3, #a8d4af)" d="M16.22 3.996h16.208v0.392h-16.208v-0.392z"></path>
<path fill="#a8d4af" style="fill: var(--color3, #a8d4af)" d="M0.013 24.33h16.208v0.392h-16.208v-0.392z"></path>
<path fill="#a8d4af" style="fill: var(--color3, #a8d4af)" d="M16.22 6.404h16.208v0.392h-16.208v-0.392z"></path>
<path fill="#a8d4af" style="fill: var(--color3, #a8d4af)" d="M0.013 26.739h16.208v0.392h-16.208v-0.392z"></path>
<path fill="#a8d4af" style="fill: var(--color3, #a8d4af)" d="M16.22 4.826h16.208v0.392h-16.208v-0.392z"></path>
<path fill="#a8d4af" style="fill: var(--color3, #a8d4af)" d="M0.013 25.159h16.208v0.392h-16.208v-0.392z"></path>
<path fill="#a8d4af" style="fill: var(--color3, #a8d4af)" d="M16.22 7.237h16.208v0.393h-16.208v-0.393z"></path>
<path fill="#a8d4af" style="fill: var(--color3, #a8d4af)" d="M0.013 27.571h16.208v0.392h-16.208v-0.392z"></path>
<path fill="#a8d4af" style="fill: var(--color3, #a8d4af)" d="M16.22 5.654h16.208v0.392h-16.208v-0.392z"></path>
<path fill="#a8d4af" style="fill: var(--color3, #a8d4af)" d="M0.013 25.987h16.208v0.392h-16.208v-0.392z"></path>
</symbol>
<symbol id="icon-logo-title" viewBox="0 0 223 32">
<path d="M16.974 32c-2.434 0-4.695-0.377-6.767-1.146-2.088-0.785-3.878-1.9-5.401-3.344-1.492-1.429-2.669-3.125-3.517-5.056-0.864-1.947-1.288-4.098-1.288-6.453 0-2.34 0.424-4.475 1.272-6.422 0.848-1.963 2.041-3.659 3.564-5.103s3.329-2.528 5.401-3.282c2.104-0.785 4.412-1.193 6.909-1.193 2.905 0 5.496 0.487 7.788 1.445 2.292 0.974 4.177 2.355 5.668 4.177l-5.543 5.009c-1.052-1.146-2.198-1.994-3.423-2.544-1.209-0.581-2.544-0.879-4.051-0.879-1.319 0-2.528 0.204-3.611 0.612s-2.010 1.005-2.764 1.806c-0.769 0.769-1.366 1.68-1.806 2.764-0.408 1.052-0.612 2.261-0.612 3.611 0 1.288 0.204 2.481 0.612 3.564 0.44 1.083 1.036 2.026 1.806 2.811 0.769 0.769 1.664 1.366 2.732 1.806 1.083 0.408 2.277 0.612 3.564 0.612s2.544-0.204 3.784-0.612c1.225-0.44 2.481-1.178 3.737-2.198l4.883 6.108c-1.759 1.256-3.8 2.23-6.108 2.905-2.34 0.675-4.601 1.005-6.83 1.005zM22.202 26.944v-11.604h7.694v12.75l-7.694-1.146z"></path>
<path d="M43.289 31.388v-23.867h-9.452v-6.909h27.556v6.909h-9.405v23.867h-8.699z"></path>
<path d="M86.532 0.612h8.699v30.775h-8.699v-30.775zM74.661 31.388h-8.699v-30.775h8.699v30.775zM87.144 19.392h-13.095v-7.207h13.095v7.207z"></path>
<path d="M102.705 31.388v-30.775h14.069c2.811 0 5.229 0.455 7.254 1.366 2.057 0.911 3.627 2.23 4.742 3.957 1.115 1.696 1.664 3.721 1.664 6.061 0 2.308-0.55 4.318-1.664 6.029-1.115 1.664-2.701 2.968-4.742 3.863-2.025 0.879-4.444 1.319-7.254 1.319h-9.233l3.863-3.643v11.823h-8.699zM121.735 31.388l-7.647-11.211h9.28l7.694 11.211h-9.327zM111.403 20.491l-3.863-4.004h8.699c1.821 0 3.172-0.393 4.051-1.193 0.911-0.785 1.366-1.884 1.366-3.297 0-1.429-0.455-2.544-1.366-3.344-0.879-0.785-2.23-1.193-4.051-1.193h-8.699l3.863-4.004v17.036z"></path>
<path d="M144.565 12.53h14.289v6.501h-14.289v-6.5zM145.178 24.667h16.094v6.72h-24.714v-30.775h24.133v6.72h-15.513v17.335z"></path>
<path d="M175.419 12.53h14.289v6.501h-14.289v-6.5zM176.031 24.667h16.094v6.72h-24.714v-30.775h24.149v6.72h-15.513v17.335z"></path>
<path d="M209.099 32c-2.528 0-4.946-0.314-7.301-0.926-2.308-0.644-4.208-1.46-5.668-2.465l2.858-6.422c1.382 0.879 2.968 1.617 4.742 2.198 1.821 0.55 3.627 0.832 5.401 0.832 1.209 0 2.167-0.11 2.905-0.314 0.738-0.236 1.256-0.534 1.586-0.879 0.345-0.377 0.534-0.817 0.534-1.319 0-0.707-0.314-1.256-0.974-1.664-0.644-0.408-1.476-0.754-2.512-1.005-1.021-0.267-2.167-0.534-3.423-0.785-1.225-0.267-2.481-0.597-3.737-1.005-1.225-0.408-2.355-0.942-3.392-1.586-1.021-0.675-1.869-1.539-2.512-2.591-0.644-1.083-0.974-2.449-0.974-4.082 0-1.853 0.502-3.517 1.492-5.009 1.021-1.492 2.544-2.701 4.569-3.611s4.538-1.366 7.568-1.366c2.025 0 4.004 0.236 5.935 0.707 1.963 0.44 3.706 1.099 5.229 1.978l-2.685 6.469c-1.46-0.785-2.921-1.382-4.349-1.759-1.429-0.408-2.826-0.612-4.177-0.612-1.193 0-2.167 0.126-2.905 0.393-0.738 0.236-1.256 0.55-1.586 0.973-0.33 0.408-0.487 0.879-0.487 1.413 0 0.675 0.314 1.209 0.926 1.633 0.644 0.377 1.476 0.707 2.512 0.973 1.052 0.236 2.198 0.487 3.423 0.754 1.256 0.267 2.512 0.597 3.737 1.005 1.256 0.377 2.402 0.911 3.423 1.586 1.021 0.644 1.853 1.507 2.465 2.591 0.644 1.052 0.974 2.387 0.974 4.004 0 1.79-0.518 3.439-1.539 4.962-0.989 1.492-2.512 2.701-4.522 3.611-1.978 0.864-4.491 1.319-7.537 1.319z"></path>
</symbol>
<symbol id="icon-phone" viewBox="0 0 32 32">
<path d="M14.104 0.119c-5.215 0.593-9.956 3.911-12.326 8.77-0.474 1.067-0.83 1.778-1.067 2.963-0.948 3.556-0.593 7.23 0.83 10.548l0.237 0.593-0.948 4.504c-0.474 2.489-0.83 4.504-0.83 4.504s2.015-0.356 4.504-0.83l4.504-0.948 0.593 0.237c1.185 0.593 2.726 0.948 4.267 1.185 1.067 0.119 3.437 0.119 4.622 0 1.778-0.237 3.081-0.711 4.622-1.541 4.385-2.133 7.467-6.163 8.533-11.022 0.474-2.015 0.474-4.622 0-6.637-0.474-2.37-1.541-4.504-3.081-6.519-0.474-0.711-2.015-2.133-2.726-2.726-2.37-1.778-4.978-2.963-7.822-3.319-0.948 0.119-2.963 0.119-3.911 0.237zM17.659 1.659c2.607 0.237 5.333 1.422 7.467 3.081 0.593 0.474 1.896 1.778 2.252 2.252 3.437 4.385 4.148 10.311 1.659 15.17-1.422 2.963-3.793 5.215-6.756 6.637-3.081 1.422-6.4 1.778-9.719 0.948-0.83-0.237-1.541-0.474-2.489-0.948l-0.83-0.356-3.556 0.711c-2.015 0.356-3.674 0.711-3.674 0.711s0.356-1.659 0.711-3.674l0.711-3.674-0.356-0.83c-1.422-3.081-1.778-6.281-0.948-9.481 1.422-5.57 6.4-9.956 12.444-10.548 0.711-0.119 2.37-0.119 3.081 0z"></path>
<path d="M11.259 8.533c0.237 0.119 1.896 1.778 2.252 2.133 0.474 0.593 0.356 0.948-0.237 1.659-1.067 1.185-1.304 2.726-0.593 4.148 0.237 0.356 0.474 0.593 1.304 1.541 0.83 0.83 1.185 1.067 1.541 1.304 0.593 0.356 1.067 0.474 1.659 0.474 0.948 0 1.659-0.237 2.489-0.948 0.593-0.593 1.067-0.593 1.541-0.356 0.119 0.119 0.711 0.593 1.304 1.185 1.185 1.185 1.185 1.304 1.067 1.778 0 0.237-0.83 1.185-1.422 1.541s-0.948 0.474-2.133 0.474c-1.185 0-1.896-0.119-2.844-0.356-2.963-0.711-5.452-2.607-6.993-5.096-0.593-0.948-1.067-2.015-1.304-3.2-0.237-0.948-0.356-1.659-0.356-2.844 0-1.422 0.119-1.896 0.948-2.726 0.711-0.83 1.304-1.067 1.778-0.711z"></path>
</symbol>
<symbol id="icon-remove" viewBox="0 0 32 32">
<path d="M32 3.2l-3.2-3.2-12.8 12.8-12.8-12.8-3.2 3.2 12.8 12.8-12.8 12.8 3.2 3.2 12.8-12.8 12.8 12.8 3.2-3.2-12.8-12.8 12.8-12.8z"></path>
</symbol>
<symbol id="icon-skype" viewBox="0 0 32 32">
<path d="M8.533 0c-2.37 0.356-4.030 1.185-5.689 2.844s-2.607 3.556-2.844 5.926c-0.119 1.422 0.119 3.319 0.711 4.622 0.119 0.356 0.119 0.356 0.119 1.778s0 2.252 0.237 3.319c0.83 4.504 3.793 8.533 7.941 10.548 1.422 0.711 2.844 1.185 4.504 1.422 0.593 0.119 1.067 0.119 2.252 0.119h1.541l0.711 0.356c0.711 0.356 1.541 0.593 2.37 0.83 0.474 0.119 0.83 0.119 1.896 0.119 1.185 0 1.422 0 2.015-0.119 1.896-0.474 3.437-1.185 4.859-2.607 0.83-0.83 1.422-1.541 1.896-2.607 1.304-2.607 1.304-5.807 0-8.415l-0.237-0.356v-1.541c0-2.133-0.119-3.437-0.83-5.215-1.778-5.333-6.519-9.126-12.089-9.956-0.948-0.119-2.37-0.119-3.081-0.119h-0.711l-0.593-0.237c-1.185-0.474-2.37-0.711-3.793-0.711-0.593 0-1.185 0-1.185 0zM11.378 1.659c0.711 0.119 1.304 0.356 2.015 0.711l0.474 0.237 0.474-0.119c0.711-0.119 2.489-0.119 3.319 0 6.756 0.948 11.733 6.637 11.615 13.274 0 0.474 0 1.185-0.119 1.422l-0.119 0.593 0.356 0.593c0.593 1.185 0.83 2.133 0.948 3.437 0.119 2.015-0.474 3.793-1.778 5.333-1.422 1.896-3.556 2.963-6.044 3.081-1.541 0.119-3.2-0.356-4.504-1.067l-0.474-0.237-0.948 0.119c-2.252 0.119-4.741-0.356-6.756-1.304-1.541-0.711-2.489-1.422-3.674-2.607-1.896-1.896-3.081-4.267-3.674-6.874-0.237-1.185-0.237-3.081-0.119-4.267 0.119-0.356 0-0.356-0.119-0.83-0.237-0.593-0.593-1.541-0.711-2.252 0.119-0.593 0.119-1.778 0.237-2.607 0.593-3.319 3.319-6.044 6.756-6.637 0.593-0.119 2.133-0.119 2.844 0z"></path>
<path d="M17.067 7.467c0.83 0.119 1.304 0.356 2.133 0.711 1.541 0.711 2.37 1.659 2.489 2.726 0.119 0.948-0.593 1.659-1.541 1.659-0.593 0-0.83-0.119-1.659-1.067-0.593-0.593-0.83-0.83-1.185-0.948-1.422-0.711-3.437-0.593-4.385 0.119-0.83 0.593-1.067 1.778-0.474 2.489 0.593 0.593 1.067 0.83 3.911 1.422 2.37 0.474 2.844 0.711 3.674 1.067 0.593 0.356 1.422 0.948 1.778 1.541 0.474 0.711 0.83 1.896 0.711 2.963-0.119 1.896-1.067 3.2-2.844 4.030-1.304 0.593-2.607 0.83-4.385 0.83-1.659 0-2.963-0.356-4.030-0.83-1.659-0.83-2.607-2.015-2.607-3.2 0-0.83 0.593-1.422 1.422-1.422 0.711 0 0.83 0.119 2.133 1.659 0.711 0.711 1.304 1.067 2.252 1.304 0.711 0.119 1.896 0.119 2.37-0.119 1.185-0.356 1.778-1.067 1.896-2.015 0.119-0.83-0.356-1.541-1.067-1.778-0.237-0.119-1.541-0.474-2.963-0.83-1.304-0.711-2.607-1.185-2.844-1.185-1.659-0.593-2.607-1.541-3.081-2.963-0.119-0.356-0.119-0.593-0.119-1.304 0-0.948 0.119-1.422 0.474-2.133 0.711-1.422 2.37-2.489 4.622-2.844 0.711-0.119 2.489-0.119 3.319 0.119z"></path>
</symbol>
<symbol id="icon-telegram" viewBox="0 0 32 32">
<path d="M16 32c-8.8 0-16-7.2-16-16s7.2-16 16-16 16 7.2 16 16-7.2 16-16 16zM16 1.143c-8.229 0-14.857 6.629-14.857 14.857s6.629 14.857 14.857 14.857c8.229 0 14.857-6.629 14.857-14.857s-6.629-14.857-14.857-14.857zM19.657 24.229c-0.114 0-0.229 0-0.343-0.114l-3.657-2.743-3.657 2.743c-0.229 0.114-0.457 0.229-0.686 0.457-0.114-0.229-0.114-0.457-0.229-0.686l-2.286-6.286-3.771-1.486c-0.229-0.114-0.457-0.343-0.457-0.571s0.114-0.457 0.343-0.571l18.514-7.314c0.229-0.114 0.457 0 0.571 0.114s0.229 0.343 0.229 0.571l-4 15.429c0 0.229-0.229 0.343-0.343 0.343-0.114 0.114-0.114 0.114-0.229 0.114zM16 20.229l3.314 2.514 3.543-13.486-16.114 6.286 2.4 1.029 9.371-4.8c0.229-0.114 0.571 0 0.686 0.114s0.114 0.571 0 0.686l-5.257 6.057 2.057 1.6zM13.486 19.771l-0.8 2.4 1.943-1.486-1.143-0.914zM9.943 17.486l1.714 4.457 1.143-3.314c0 0 0.114-0.114 0.114-0.229l3.771-4.343-6.743 3.429z"></path>
</symbol>
<symbol id="icon-viber" viewBox="0 0 30 32">
<path d="M11.141 0c-2.015 0.119-4.504 0.474-5.215 0.593-1.422 0.356-2.489 1.067-3.556 2.133s-1.778 2.37-2.015 3.911c-0.237 1.304-0.474 7.23-0.356 10.311 0.119 2.015 0.119 3.319 0.237 3.911 0.237 1.778 1.304 3.674 2.844 4.741 1.185 0.948 2.37 1.304 4.267 1.541l0.711 0.119v2.37c0 2.252 0 2.37 0.119 2.37 0 0 1.778-0.948 3.793-2.252l3.793-2.133h0.593c0.356 0 1.304-0.119 2.015-0.119 2.607-0.119 4.859-0.356 5.807-0.711 2.489-0.711 4.504-2.963 5.096-5.689 0.237-1.067 0.356-3.437 0.356-7.467 0-3.911-0.119-6.163-0.356-7.23-0.356-1.541-1.067-2.844-2.133-4.030-0.83-0.83-1.896-1.422-3.081-1.778-0.83-0.237-3.081-0.474-5.807-0.711-1.185 0.119-5.807 0.119-7.111 0.119zM16.83 1.422c2.489 0 5.689 0.356 6.637 0.593 2.015 0.474 3.674 2.133 4.267 4.148 0.356 1.067 0.474 2.963 0.474 7.704 0 6.4-0.119 7.585-1.304 9.244-0.356 0.593-1.067 1.304-1.659 1.659-0.474 0.356-1.185 0.593-1.659 0.83-0.948 0.237-4.030 0.593-7.111 0.711h-1.185l-2.963 1.659c-1.541 0.83-2.844 1.659-2.844 1.659s0-0.83 0-1.778v-1.778l-1.422-0.119c-0.83-0.119-1.659-0.237-1.896-0.237-1.659-0.474-3.081-1.541-3.793-3.081-0.474-0.948-0.593-1.541-0.711-3.081-0.237-3.674-0.237-9.007 0-11.97 0.237-2.844 2.37-4.978 5.096-5.57 0.356-0.119 2.489-0.356 3.674-0.474 0.948-0.119 4.148-0.119 4.504-0.119 0.237 0 1.067 0 1.896 0z"></path>
<path d="M14.815 5.57h0.356c0.948 0 2.252 0.356 3.2 0.83 2.133 1.067 3.319 2.844 3.674 5.452 0 0.356 0.119 0.83 0.119 0.948v0.356h1.422v-0.711c-0.237-3.556-2.015-6.281-4.978-7.585-0.948-0.474-2.37-0.711-3.319-0.711h-0.474v1.422z"></path>
<path d="M14.815 8.296h0.356c0.474 0 1.304 0.119 1.778 0.356 1.541 0.593 2.37 2.015 2.607 3.911v0.593h1.422v-0.237c0-0.474-0.119-1.541-0.356-2.015-0.711-2.37-2.607-3.674-5.096-3.911h-0.593v1.304z"></path>
<path d="M14.815 11.022h0.356c1.067 0.119 1.422 0.474 1.541 1.541l0.119 0.474h1.422v-0.474c-0.119-0.948-0.356-1.541-0.83-2.133-0.474-0.474-1.185-0.83-2.133-0.83h-0.474v1.422z"></path>
<path d="M9.244 7.822c0.356 0.237 2.015 1.896 2.015 2.133 0.119 0.237 0.119 0.593 0 0.711 0 0.119-0.237 0.356-0.474 0.593-0.593 0.711-0.83 1.304-0.83 2.252 0 0.711 0.119 1.304 0.474 1.778 0.119 0.237 0.593 0.83 1.185 1.304 1.185 1.185 1.659 1.422 2.726 1.422 0.83 0 1.541-0.237 2.133-0.83 0.474-0.356 0.593-0.474 1.067-0.474 0.237 0 2.37 2.133 2.489 2.489s0 0.593-0.593 1.304c-0.83 0.83-1.541 1.067-2.963 1.067-3.437-0.237-6.281-1.778-8.178-4.622-1.067-1.659-1.659-3.674-1.659-5.926 0-1.067 0.237-1.659 0.948-2.489 0.83-0.948 1.185-1.067 1.659-0.711z"></path>
</symbol>
<symbol id="icon-viber" viewBox="0 0 30 32">
<path d="M11.141 0c-2.015 0.119-4.504 0.474-5.215 0.593-1.422 0.356-2.489 1.067-3.556 2.133s-1.778 2.37-2.015 3.911c-0.237 1.304-0.474 7.23-0.356 10.311 0.119 2.015 0.119 3.319 0.237 3.911 0.237 1.778 1.304 3.674 2.844 4.741 1.185 0.948 2.37 1.304 4.267 1.541l0.711 0.119v2.37c0 2.252 0 2.37 0.119 2.37 0 0 1.778-0.948 3.793-2.252l3.793-2.133h0.593c0.356 0 1.304-0.119 2.015-0.119 2.607-0.119 4.859-0.356 5.807-0.711 2.489-0.711 4.504-2.963 5.096-5.689 0.237-1.067 0.356-3.437 0.356-7.467 0-3.911-0.119-6.163-0.356-7.23-0.356-1.541-1.067-2.844-2.133-4.030-0.83-0.83-1.896-1.422-3.081-1.778-0.83-0.237-3.081-0.474-5.807-0.711-1.185 0.119-5.807 0.119-7.111 0.119zM16.83 1.422c2.489 0 5.689 0.356 6.637 0.593 2.015 0.474 3.674 2.133 4.267 4.148 0.356 1.067 0.474 2.963 0.474 7.704 0 6.4-0.119 7.585-1.304 9.244-0.356 0.593-1.067 1.304-1.659 1.659-0.474 0.356-1.185 0.593-1.659 0.83-0.948 0.237-4.030 0.593-7.111 0.711h-1.185l-2.963 1.659c-1.541 0.83-2.844 1.659-2.844 1.659s0-0.83 0-1.778v-1.778l-1.422-0.119c-0.83-0.119-1.659-0.237-1.896-0.237-1.659-0.474-3.081-1.541-3.793-3.081-0.474-0.948-0.593-1.541-0.711-3.081-0.237-3.674-0.237-9.007 0-11.97 0.237-2.844 2.37-4.978 5.096-5.57 0.356-0.119 2.489-0.356 3.674-0.474 0.948-0.119 4.148-0.119 4.504-0.119 0.237 0 1.067 0 1.896 0z"></path>
<path d="M14.815 5.57h0.356c0.948 0 2.252 0.356 3.2 0.83 2.133 1.067 3.319 2.844 3.674 5.452 0 0.356 0.119 0.83 0.119 0.948v0.356h1.422v-0.711c-0.237-3.556-2.015-6.281-4.978-7.585-0.948-0.474-2.37-0.711-3.319-0.711h-0.474v1.422z"></path>
<path d="M14.815 8.296h0.356c0.474 0 1.304 0.119 1.778 0.356 1.541 0.593 2.37 2.015 2.607 3.911v0.593h1.422v-0.237c0-0.474-0.119-1.541-0.356-2.015-0.711-2.37-2.607-3.674-5.096-3.911h-0.593v1.304z"></path>
<path d="M14.815 11.022h0.356c1.067 0.119 1.422 0.474 1.541 1.541l0.119 0.474h1.422v-0.474c-0.119-0.948-0.356-1.541-0.83-2.133-0.474-0.474-1.185-0.83-2.133-0.83h-0.474v1.422z"></path>
<path d="M9.244 7.822c0.356 0.237 2.015 1.896 2.015 2.133 0.119 0.237 0.119 0.593 0 0.711 0 0.119-0.237 0.356-0.474 0.593-0.593 0.711-0.83 1.304-0.83 2.252 0 0.711 0.119 1.304 0.474 1.778 0.119 0.237 0.593 0.83 1.185 1.304 1.185 1.185 1.659 1.422 2.726 1.422 0.83 0 1.541-0.237 2.133-0.83 0.474-0.356 0.593-0.474 1.067-0.474 0.237 0 2.37 2.133 2.489 2.489s0 0.593-0.593 1.304c-0.83 0.83-1.541 1.067-2.963 1.067-3.437-0.237-6.281-1.778-8.178-4.622-1.067-1.659-1.659-3.674-1.659-5.926 0-1.067 0.237-1.659 0.948-2.489 0.83-0.948 1.185-1.067 1.659-0.711z"></path>
</symbol>
<symbol id="icon-mail" viewBox="0 0 24 24">
<path class="st0" d="M22,19.5H2c-0.3,0-0.5-0.2-0.5-0.5V5c0-0.3,0.2-0.5,0.5-0.5h20c0.3,0,0.5,0.2,0.5,0.5v14
		C22.5,19.3,22.3,19.5,22,19.5z M2.5,18.5h19v-13h-19V18.5z"/>
	<polygon class="st0" points="12,14.7 1.7,5.4 2.3,4.6 12,13.3 21.7,4.6 22.3,5.4 	"/>
	<rect x="0.2" y="14.5" transform="matrix(0.6582 -0.7529 0.7529 0.6582 -9.4131 9.2685)" class="st0" width="10.6" height="1"/>
	<rect x="18" y="9.7" transform="matrix(0.7526 -0.6585 0.6585 0.7526 -5.3003 15.893)" class="st0" width="1" height="10.6"/>
</symbol>
</defs>
</svg>
