<svg width="1419" height="204" viewBox="0 0 1419 204" fill="none" xmlns="http://www.w3.org/2000/svg">
<path d="M108.08 203.84C92.5867 203.84 78.2133 201.413 64.96 196.56C51.7067 191.52 40.2267 184.427 30.52 175.28C21 166.133 13.5333 155.4 8.12 143.08C2.70667 130.573 0 116.853 0 101.92C0 86.9867 2.70667 73.36 8.12 61.04C13.5333 48.5333 21.0933 37.7067 30.8 28.56C40.5067 19.4133 51.9867 12.4133 65.24 7.56C78.68 2.52 93.3333 0 109.2 0C127.68 0 144.2 3.08 158.76 9.24C173.32 15.4 185.36 24.2667 194.88 35.84L159.6 67.76C152.88 60.48 145.6 55.0667 137.76 51.52C130.107 47.7867 121.52 45.92 112 45.92C103.6 45.92 95.9467 47.2267 89.04 49.84C82.1333 52.4533 76.2533 56.28 71.4 61.32C66.5467 66.1733 62.72 72.0533 59.92 78.96C57.3067 85.68 56 93.3333 56 101.92C56 110.133 57.3067 117.693 59.92 124.6C62.72 131.507 66.5467 137.48 71.4 142.52C76.2533 147.373 82.04 151.2 88.76 154C95.6667 156.613 103.227 157.92 111.44 157.92C119.653 157.92 127.68 156.613 135.52 154C143.36 151.2 151.293 146.533 159.32 140L190.4 178.92C179.2 186.947 166.227 193.107 151.48 197.4C136.733 201.693 122.267 203.84 108.08 203.84ZM141.4 171.64V97.72H190.4V178.92L141.4 171.64Z" fill="#003B77"/>
<path d="M275.669 199.92V47.88H215.469V3.92H391.029V47.88H331.109V199.92H275.669Z" fill="#003B77"/>
<path d="M551.123 3.92H606.563V199.92H551.123V3.92ZM475.523 199.92H420.083V3.92H475.523V199.92ZM555.043 123.48H471.603V77.56H555.043V123.48Z" fill="#003B77"/>
<path d="M654.069 199.92V3.92H743.669C761.589 3.92 776.989 6.81333 789.869 12.6C802.936 18.3867 813.016 26.7867 820.109 37.8C827.202 48.6267 830.749 61.5067 830.749 76.44C830.749 91.1867 827.202 103.973 820.109 114.8C813.016 125.44 802.936 133.653 789.869 139.44C776.989 145.04 761.589 147.84 743.669 147.84H684.869L709.509 124.6V199.92H654.069ZM775.309 199.92L726.589 128.52H785.669L834.669 199.92H775.309ZM709.509 130.48L684.869 105H740.309C751.882 105 760.469 102.48 766.069 97.44C771.856 92.4 774.749 85.4 774.749 76.44C774.749 67.2933 771.856 60.2 766.069 55.16C760.469 50.12 751.882 47.6 740.309 47.6H684.869L709.509 22.12V130.48Z" fill="#003B77"/>
<path d="M920.695 79.8H1011.69V121.24H920.695V79.8ZM924.615 157.08H1027.09V199.92H869.735V3.92H1023.45V46.76H924.615V157.08Z" fill="#003B77"/>
<path d="M1117.22 79.8H1208.22V121.24H1117.22V79.8ZM1121.14 157.08H1223.62V199.92H1066.26V3.92H1219.98V46.76H1121.14V157.08Z" fill="#003B77"/>
<path d="M1331.66 203.84C1315.61 203.84 1300.12 201.88 1285.18 197.96C1270.44 193.853 1258.4 188.627 1249.06 182.28L1267.26 141.4C1276.04 147 1286.12 151.667 1297.5 155.4C1309.08 158.947 1320.56 160.72 1331.94 160.72C1339.6 160.72 1345.76 160.067 1350.42 158.76C1355.09 157.267 1358.45 155.4 1360.5 153.16C1362.74 150.733 1363.86 147.933 1363.86 144.76C1363.86 140.28 1361.81 136.733 1357.7 134.12C1353.6 131.507 1348.28 129.36 1341.74 127.68C1335.21 126 1327.93 124.32 1319.9 122.64C1312.06 120.96 1304.13 118.813 1296.1 116.2C1288.26 113.587 1281.08 110.227 1274.54 106.12C1268.01 101.827 1262.69 96.32 1258.58 89.6C1254.48 82.6933 1252.42 74.0133 1252.42 63.56C1252.42 51.8 1255.6 41.16 1261.94 31.64C1268.48 22.12 1278.18 14.4667 1291.06 8.68001C1303.94 2.89333 1320 0 1339.22 0C1352.1 0 1364.7 1.49334 1377.02 4.48001C1389.53 7.28001 1400.64 11.48 1410.34 17.08L1393.26 58.24C1383.93 53.2 1374.69 49.4667 1365.54 47.04C1356.4 44.4267 1347.53 43.12 1338.94 43.12C1331.29 43.12 1325.13 43.96 1320.46 45.64C1315.8 47.1333 1312.44 49.1867 1310.38 51.8C1308.33 54.4133 1307.3 57.4 1307.3 60.76C1307.3 65.0533 1309.26 68.5067 1313.18 71.12C1317.29 73.5467 1322.61 75.6 1329.14 77.28C1335.86 78.7733 1343.14 80.36 1350.98 82.04C1359.01 83.72 1366.94 85.8667 1374.78 88.48C1382.81 90.9067 1390.09 94.2667 1396.62 98.56C1403.16 102.667 1408.38 108.173 1412.3 115.08C1416.41 121.8 1418.46 130.293 1418.46 140.56C1418.46 151.947 1415.2 162.493 1408.66 172.2C1402.32 181.72 1392.7 189.373 1379.82 195.16C1367.13 200.947 1351.08 203.84 1331.66 203.84Z" fill="#003B77"/>
</svg>
