<svg width="192" height="33" viewBox="0 0 192 33" fill="none" xmlns="http://www.w3.org/2000/svg">
<path fill-rule="evenodd" clip-rule="evenodd" d="M192 0H34.2985L34.2013 33H191.903L192 0Z" fill="#003D6E"/>
<path d="M56.0063 16.0482H66.5226V16.9021C66.5226 20.9048 65.387 24.0654 63.11 26.3841C60.8338 28.7026 57.7303 29.8589 53.795 29.8589C52.594 29.8589 51.4528 29.7346 50.371 29.4795C49.2829 29.2247 48.2843 28.8508 47.3689 28.3648C45.2763 27.22 43.6593 25.6368 42.5236 23.6148C41.3886 21.5928 40.818 19.2976 40.818 16.7241C40.818 14.6073 41.1566 12.6919 41.8342 10.984C42.5177 9.27616 43.5405 7.76998 44.9078 6.4773C46.0609 5.38594 47.3928 4.56187 48.9144 4.01029C50.4362 3.45281 52.1186 3.17408 53.9673 3.17408C56.4168 3.17408 58.5388 3.61875 60.3403 4.50252C62.1414 5.39185 63.6334 6.7262 64.8163 8.50521L62.2723 10.5393C61.3569 8.99741 60.2093 7.84705 58.842 7.07608C57.475 6.30512 55.8816 5.91983 54.0683 5.91983C51.1079 5.91983 48.7063 6.91606 46.8635 8.90855C45.0145 10.901 44.0931 13.5041 44.0931 16.7241C44.0931 19.7603 45.0322 22.251 46.9052 24.1959C48.7779 26.1408 51.1673 27.1135 54.0683 27.1135C56.6249 27.1135 58.7527 26.3425 60.4528 24.7947C62.1532 23.2472 63.0982 21.237 63.2826 18.7582H56.0063V16.0482ZM74.851 29.183V6.63143H67.6399V3.74926H85.094V6.63143H77.9184V29.183H74.851ZM88.4764 29.183V3.74926H91.508V13.534H105.056V3.74926H108.141V29.183H105.056V16.4158H91.508V29.183H88.4764ZM114.235 29.183V3.74926H120.221C121.933 3.74926 123.181 3.84438 123.978 4.03391C124.774 4.22968 125.476 4.55597 126.077 5.01834C126.831 5.60533 127.42 6.3999 127.836 7.39024C128.258 8.38059 128.466 9.47784 128.466 10.6817C128.466 12.763 127.884 14.3462 126.712 15.4314C125.547 16.5165 123.835 17.0562 121.582 17.0562H121.041L130.784 29.183H126.933L117.629 17.0562H117.195V29.183H114.235ZM117.195 6.30512V14.8145H119.508C121.879 14.8145 123.467 14.5122 124.269 13.9016C125.072 13.2966 125.47 12.235 125.47 10.7171C125.47 9.08628 125.06 7.94181 124.233 7.28366C123.407 6.63142 121.832 6.30512 119.508 6.30512H117.195ZM133.323 29.183V3.74926H146.77V6.5127H136.355V13.8065H146.77V16.6234H136.355V26.3661H146.77V29.183H133.323ZM151.906 29.183V3.74926H165.353V6.5127H154.938V13.8065H165.353V16.6234H154.938V26.3661H165.353V29.183H151.906ZM179.769 15.0579C181.427 15.7636 182.681 16.7004 183.526 17.8685C184.364 19.0428 184.786 20.4244 184.786 22.0198C184.786 24.3618 184.043 26.2477 182.551 27.6768C181.059 29.1059 179.079 29.8234 176.618 29.8234C174.609 29.8234 172.926 29.3135 171.565 28.2874C170.21 27.2617 169.294 25.8031 168.819 23.9171L171.565 22.5592C171.94 24.1011 172.552 25.2692 173.402 26.0579C174.258 26.8524 175.328 27.2499 176.618 27.2499C178.14 27.2499 179.37 26.8111 180.31 25.9395C181.249 25.0616 181.719 23.9289 181.719 22.5238C181.719 21.3911 181.392 20.4008 180.738 19.5646C180.078 18.7224 179.091 18.0167 177.765 17.4357L174.668 16.1135C172.974 15.4078 171.708 14.5004 170.881 13.3854C170.049 12.2767 169.633 10.9423 169.633 9.39453C169.633 7.58601 170.305 6.09166 171.654 4.91178C172.998 3.73156 174.716 3.13867 176.808 3.13867C178.342 3.13867 179.668 3.46461 180.785 4.11096C181.909 4.7573 182.783 5.71814 183.407 6.98132L180.898 8.57636C180.334 7.59192 179.691 6.86261 178.984 6.38219C178.277 5.90177 177.474 5.65879 176.582 5.65879C175.447 5.65879 174.514 6.00869 173.788 6.70259C173.063 7.39614 172.701 8.27991 172.701 9.35912C172.701 10.2606 172.98 11.0434 173.539 11.7015C174.092 12.3656 174.959 12.9466 176.131 13.4566L179.769 15.0579Z" fill="#FEFEFE"/>
<path fill-rule="evenodd" clip-rule="evenodd" d="M0 0.197266H32.6215V3.71223H3.32333V14.7421H29.2985V11.8499H16.2885V8.33523H32.6215V8.67437V11.8499V14.7421V15.6699V17.886V18.2567V29.2866V32.587V32.8015H0V29.2866H29.2985V18.2567H3.32333V21.1493H16.334V24.6639H0V24.3248V21.1493V18.2567V17.3289V15.1128V14.7421V3.71223V0.412133V0.197266Z" fill="#003D6E"/>
</svg>
